<?xml version="1.0" standalone="no"?><!DOCTYPE svg PUBLIC "-//W3C//DTD SVG 1.1//EN" "http://www.w3.org/Graphics/SVG/1.1/DTD/svg11.dtd"><svg t="1596100017572" class="icon" viewBox="0 0 1024 1024" version="1.1" xmlns="http://www.w3.org/2000/svg" p-id="4255" xmlns:xlink="http://www.w3.org/1999/xlink" width="200" height="200"><defs><style type="text/css"></style></defs><path d="M68.191078 561.312102l98.624205 0 0-98.624205L68.191078 462.687898 68.191078 561.312102zM68.191078 758.560512l98.624205 0 0-98.624205L68.191078 659.936307 68.191078 758.560512zM68.191078 364.063693l98.624205 0 0-98.624205L68.191078 265.439488 68.191078 364.063693zM265.439488 561.312102l690.369434 0 0-98.624205L265.439488 462.687898 265.439488 561.312102zM265.439488 758.560512l690.369434 0 0-98.624205L265.439488 659.936307 265.439488 758.560512zM265.439488 265.439488l0 98.624205 690.369434 0 0-98.624205L265.439488 265.439488z" p-id="4256"></path></svg>